Genre:Drama | Romance
Language:English
IMDb:http://www.imdb.com/title/tt1686782/
Source:DVD

General
Complete name :Love.and.Distrust.2010.DvDRip.H264.Feel-Free
Format : MPEG-4
Format profile : Base Media / Version 2
Codec ID : mp42
File size : 792 MiB
Duration : 1h 33mn
Overall bit rate : 1 180 Kbps
Video #1
Codec ID : avc1
Codec ID/Info : Advanced Video Coding
Duration : 1h 33mn
Bit rate mode : Variable
Bit rate : 700 Kbps
Width : 720 pixels
Height : 384 pixels
Display aspect ratio : 1.875
Frame rate mode : Constant
Frame rate : 23.976 fps
Resolution : 24 bits
Colorimetry : 4:2:0
Scan type : Progressive
Bits/(Pixel*Frame) : 0.106
Stream size : 469 MiB (59%)
Audio #2
ID : 2
Format : AAC
Format/Info : Advanced Audio Codec
Format version : Version 4
Format profile : LC
Format settings, SBR : No
Codec ID : 40
Duration : 1h 33mn
Bit rate mode : Constant
Bit rate : 477 Kbps
Nominal bit rate : 480 Kbps
Channel(s) : 6 channels
Channel positions : Front: L C R, Rear: L R, LFE
Sampling rate : 48.0 KHz
Resolution : 16 bits
Stream size : 320 MiB (40%)

Plot:
Tale of the passions and perils of love in all its forms. Split into five stories that focus on the lives of a group of beautiful yet troubled twenty-somethings, this film explores the dark heart of romance, the secrets we can never tell and the heartache it can cause. Battling temptation and the pull of seduction, the fight for love can never be easy. 

